<?xml version="1.0" encoding="utf-8"?>
<!-- Generator: Adobe Illustrator 18.1.0, SVG Export Plug-In . SVG Version: 6.00 Build 0)  -->
<svg version="1.1" id="Layer_1" xmlns="http://www.w3.org/2000/svg" xmlns:xlink="http://www.w3.org/1999/xlink" x="0px" y="0px"
	 width="67px" height="68px" viewBox="-327.5 563 67 68" enable-background="new -327.5 563 67 68" xml:space="preserve">
<g>
	<path stroke="#000000" stroke-miterlimit="10" d="M-272.6,592.7c0.7,2.6,1.1,5.5,1.1,8.4c0,0.3,0,0.7,0,1l3.4,1.3l2.8-2.4l2.2,2.6
		l-4.3,3.5l-4.4-1.8c-0.5,3.9-1.7,7.6-3.4,10.7l0.6-0.8l3.3,1.9l3.2-1.9l1.8,2.9l-4.7,2.9l-5.2-3.1c-4.1,6.3-10.4,10.4-17.5,10.4
		c-7.1,0-13.4-4.1-17.5-10.4l-5.1,3l-4.7-2.9l1.8-2.9l3.2,1.9l3.3-1.9l0.2,0.3c-1.6-3-2.7-6.5-3.1-10.2l-4.3,1.7l-4.3-3.5l2.2-2.6
		l2.8,2.4l3.3-1.3c0-0.4,0-0.7,0-1.1c0-2.9,0.4-5.7,1.1-8.4l-5.6-0.2l-2.4-4.9l3-1.5l1.6,3.3l3.8,0.2l0.1,1.1
		c2.3-6.8,6.8-12.3,12.4-15c0.1-2.1,1.8-3.8,4-3.8h9.3c2.2,0,4,1.8,4,4c0,0.1,0,0.2,0,0.3c5.3,2.9,9.5,8.3,11.6,14.9l0.1-1.5
		l3.8-0.2l1.6-3.3l3,1.5l-2.4,4.9L-272.6,592.7z"/>
	<polygon stroke="#000000" stroke-miterlimit="10" points="-282.5,568.4 -282.9,569.6 -283.6,569.9 -285,570.3 -286.2,571 
		-287.9,571.9 -287.9,571 -286,569.6 -284.6,569.2 -283.4,568.4 -282.7,567 -281.4,566.5 -281.7,567.8 	"/>
	<polygon stroke="#000000" stroke-miterlimit="10" points="-301.6,570.3 -303,569.9 -303.7,569.6 -304.1,568.4 -304.9,567.8 
		-305.2,566.5 -303.9,567 -303.2,568.4 -302,569.2 -300.6,569.6 -298.7,571 -298.7,571.9 -300.4,571 	"/>
</g>
</svg>
